<svg xmlns="http://www.w3.org/2000/svg" style="display:none;"
     aria-hidden="true">
    <symbol id="logo" viewBox="0 0 60 21">
        <g clip-path="url(#clip0_3_303)">
            <path d="M59.6215 0L16.0032 18.5743C12.3858 20.1048 9.34802 20.87 6.89 20.87C4.10733 20.87 2.0899 19.8961 0.837699 17.9482C0.0492763 16.696 -0.182612 15.1076 0.142032 13.1829C0.466676 11.2582 1.32467 9.20599 2.716 7.02623C3.87544 5.26388 5.77693 2.94499 8.42047 0.0695666C7.49291 1.55366 6.84362 3.08412 6.4726 4.66097C5.77693 7.62914 6.40303 9.8089 8.3509 11.2002C9.27845 11.8495 10.5538 12.1742 12.1771 12.1742C13.4756 12.1742 14.9365 11.9655 16.5598 11.5481L59.6215 0Z"
                  fill="black"/>
        </g>
        <defs>
            <clipPath id="clip0_3_303">
                <rect width="59.6186" height="20.87"/>
            </clipPath>
        </defs>
    </symbol>

    <symbol id="search" viewBox="0 0 18 18">
        <path d="M8.25 14.25C11.5637 14.25 14.25 11.5637 14.25 8.25C14.25 4.93629 11.5637 2.25 8.25 2.25C4.93629 2.25 2.25 4.93629 2.25 8.25C2.25 11.5637 4.93629 14.25 8.25 14.25Z"
              stroke="black" stroke-width="1.5" stroke-linecap="round"
              stroke-linejoin="round"/>
        <path d="M15.75 15.75L12.4875 12.4875" stroke="black" stroke-width="1.5"
              stroke-linecap="round" stroke-linejoin="round"/>
    </symbol>

    <symbol id="favorite" viewBox="0 0 18 18">
        <path d="M15.63 3.4575C15.2469 3.07425 14.7921 2.77023 14.2915 2.56281C13.7909 2.35539 13.2543 2.24863 12.7125 2.24863C12.1706 2.24863 11.634 2.35539 11.1335 2.56281C10.6329 2.77023 10.178 3.07425 9.79497 3.4575L8.99997 4.2525L8.20497 3.4575C7.4312 2.68373 6.38174 2.24903 5.28747 2.24903C4.19319 2.24903 3.14374 2.68373 2.36997 3.4575C1.5962 4.23127 1.1615 5.28072 1.1615 6.375C1.1615 7.46927 1.5962 8.51873 2.36997 9.2925L3.16497 10.0875L8.99997 15.9225L14.835 10.0875L15.63 9.2925C16.0132 8.90943 16.3172 8.45461 16.5247 7.95402C16.7321 7.45342 16.8388 6.91687 16.8388 6.375C16.8388 5.83313 16.7321 5.29658 16.5247 4.79598C16.3172 4.29539 16.0132 3.84057 15.63 3.4575V3.4575Z"
              stroke="black" stroke-width="1.5" stroke-linecap="round"
              stroke-linejoin="round"/>
    </symbol>

    <symbol id="shoppingCart" viewBox="0 0 18 18">
        <path d="M4.5 1.5L2.25 4.5V15C2.25 15.3978 2.40804 15.7794 2.68934 16.0607C2.97064 16.342 3.35218 16.5 3.75 16.5H14.25C14.6478 16.5 15.0294 16.342 15.3107 16.0607C15.592 15.7794 15.75 15.3978 15.75 15V4.5L13.5 1.5H4.5Z"
              stroke="black" stroke-width="1.5" stroke-linecap="round"
              stroke-linejoin="round"/>
        <path d="M2.25 4.5H15.75" stroke="black" stroke-width="1.5"
              stroke-linecap="round" stroke-linejoin="round"/>
        <path d="M12 7.5C12 8.29565 11.6839 9.05871 11.1213 9.62132C10.5587 10.1839 9.79565 10.5 9 10.5C8.20435 10.5 7.44129 10.1839 6.87868 9.62132C6.31607 9.05871 6 8.29565 6 7.5"
              stroke="black" stroke-width="1.5" stroke-linecap="round"
              stroke-linejoin="round"/>
    </symbol>

    <symbol id="close" viewBox="0 0 16 16">
        <path d="M12.2548 2.75489C12.5282 2.48153 12.9717 2.48153 13.2451 2.75489C13.5184 3.02826 13.5184 3.47176 13.2451 3.74513L8.9902 8.00001L13.2451 12.2549L13.3349 12.3652C13.514 12.6369 13.4841 13.006 13.2451 13.2451C13.006 13.4842 12.6368 13.5141 12.3652 13.335L12.2548 13.2451L7.99995 8.99021L3.74506 13.2451C3.4717 13.5185 3.0282 13.5185 2.75483 13.2451C2.48146 12.9718 2.48146 12.5282 2.75483 12.2549L7.00971 8.00001L2.75483 3.74513L2.66499 3.63478C2.48589 3.36311 2.51575 2.99397 2.75483 2.75489C2.99391 2.51582 3.36305 2.48595 3.63471 2.66505L3.74506 2.75489L7.99995 7.00978L12.2548 2.75489Z"
              fill="black"/>
    </symbol>

    <symbol id="star" viewBox="0 0 18 18">
        <path d="M4.6775 16L5.815 10.8237L2 7.34211L7.04 6.88158L9 2L10.96 6.88158L16 7.34211L12.185 10.8237L13.3225 16L9 13.2553L4.6775 16Z"
              fill="black"/>
    </symbol>

    <symbol id="menu" viewBox="0 0 20 20">
        <path d="M8.3337 12.6686L8.199 12.6823C7.8962 12.7445 7.6687 13.0125 7.6687 13.3337C7.6689 13.6547 7.8962 13.9229 8.199 13.985L8.3337 13.9987H16.6667C17.0339 13.9987 17.3316 13.7008 17.3318 13.3337C17.3318 12.9664 17.034 12.6686 16.6667 12.6686H8.3337ZM3.3337 6.00163L3.199 6.0153C2.8962 6.07747 2.6687 6.34546 2.6687 6.66667C2.6687 6.98788 2.8962 7.25586 3.199 7.31803L3.3337 7.33171H16.6667C17.034 7.33171 17.3318 7.03394 17.3318 6.66667C17.3318 6.2994 17.034 6.00163 16.6667 6.00163H3.3337Z"
              fill="black"/>
    </symbol>

</svg>
